<svg width="20" height="32" viewBox="0 0 20 32" fill="none" xmlns="http://www.w3.org/2000/svg">
<path d="M10 7.08341C10.9472 7.08341 11.8556 7.49802 12.5254 8.23601C13.1952 8.97401 13.5714 9.97495 13.5714 11.0186C13.5714 11.5354 13.4791 12.0471 13.2996 12.5246C13.1201 13.002 12.857 13.4358 12.5254 13.8013C12.1937 14.1667 11.8 14.4566 11.3667 14.6543C10.9334 14.8521 10.469 14.9539 10 14.9539C9.0528 14.9539 8.14439 14.5393 7.47462 13.8013C6.80485 13.0633 6.42857 12.0623 6.42857 11.0186C6.42857 9.97495 6.80485 8.97401 7.47462 8.23601C8.14439 7.49802 9.0528 7.08341 10 7.08341ZM10 0C12.6522 0 15.1957 1.16089 17.0711 3.22729C18.9464 5.29368 20 8.09632 20 11.0186C20 19.2826 10 31.4818 10 31.4818C10 31.4818 0 19.2826 0 11.0186C0 8.09632 1.05357 5.29368 2.92893 3.22729C4.8043 1.16089 7.34784 0 10 0ZM10 3.14818C8.1056 3.14818 6.28878 3.97739 4.94924 5.45339C3.60969 6.92938 2.85714 8.93127 2.85714 11.0186C2.85714 12.5927 2.85714 15.7409 10 26.3031C17.1429 15.7409 17.1429 12.5927 17.1429 11.0186C17.1429 8.93127 16.3903 6.92938 15.0508 5.45339C13.7112 3.97739 11.8944 3.14818 10 3.14818Z" fill="#FAF2A0"/>
</svg>
